/* XPM */
static char *_338551ea5504f52864e6cfdb1af17badWrAx4dIne1XPExe[] = {
/* columns rows colors chars-per-pixel */
"64 64 256 2 ",
"   c None",
".  c #38292F",
"X  c #513A2B",
"o  c #733533",
"O  c #5A161A",
"+  c #354930",
"@  c #326C30",
"#  c #764D3B",
"$  c #5C6021",
"%  c #3A386B",
"&  c #21264A",
"*  c #5B2D4D",
"=  c #6F2F51",
"-  c #47346F",
";  c #6F2B6E",
":  c #631354",
">  c #30514D",
",  c #245172",
"<  c #346F6B",
"1  c #2C6454",
"2  c #594D49",
"3  c #6F5055",
"4  c #576A48",
"5  c #517655",
"6  c #6E6C4D",
"7  c #4D4C70",
"8  c #6E4C6D",
"9  c #546B70",
"0  c #6E7173",
"q  c #B30F0F",
"w  c #920D28",
"e  c #8A3632",
"r  c #AF2B28",
"t  c #9D1C1B",
"y  c #DB1725",
"u  c #9B5A1D",
"i  c #BD4A17",
"p  c #944F37",
"a  c #B14C2D",
"s  c #8C6F33",
"d  c #A86C20",
"f  c #D34F2F",
"g  c #DC6831",
"h  c #B23650",
"j  c #9C1C68",
"k  c #FA1752",
"l  c #D83373",
"z  c #DF1E5E",
"x  c #89524E",
"c  c #AE5A52",
"v  c #8E7053",
"b  c #B06C54",
"n  c #93536C",
"m  c #AB556B",
"M  c #876D78",
"N  c #8E726D",
"B  c #B1706F",
"V  c #CC7451",
"C  c #D4576F",
"Z  c #D16E6E",
"A  c #D66156",
"S  c #38873A",
"D  c #3C972D",
"F  c #1F9217",
"G  c #558B2F",
"H  c #748A33",
"J  c #4AA82E",
"K  c #6AAF29",
"L  c #629F16",
"P  c #16D334",
"I  c #29E529",
"U  c #57C438",
"Y  c #69DA29",
"T  c #388B4E",
"R  c #2AAF49",
"E  c #14917A",
"W  c #329473",
"Q  c #33AE70",
"!  c #17B553",
"~  c #519153",
"^  c #788457",
"/  c #6D8E4C",
"(  c #51B349",
")  c #6BAE4F",
"_  c #568C71",
"`  c #6D8F6B",
"'  c #47AC6E",
"]  c #6DB36F",
"[  c #0BCA50",
"{  c #3AC853",
"}  c #19D36B",
"|  c #36D65E",
" . c #50CF50",
".. c #6FC755",
"X. c #48D06D",
"o. c #73C66C",
"O. c #51E553",
"+. c #8D8A2A",
"@. c #A69531",
"#. c #91AA32",
"$. c #A09C1B",
"%. c #D0960D",
"&. c #E1A01D",
"*. c #B2F410",
"=. c #89CD32",
"-. c #BCDE32",
";. c #D3ED25",
":. c #D4E426",
">. c #938C4E",
",. c #A99151",
"<. c #90AA53",
"1. c #ADB155",
"2. c #908E70",
"3. c #A79874",
"4. c #AD8868",
"5. c #97BA79",
"6. c #8DAE71",
"7. c #ABAC6E",
"8. c #CD9057",
"9. c #CDB44A",
"0. c #CA8D6C",
"q. c #CBAB70",
"w. c #E9BA77",
"e. c #91D04F",
"r. c #B3D052",
"t. c #83C875",
"y. c #86CB63",
"u. c #ADD06D",
"i. c #8EF86A",
"p. c #AEE459",
"a. c #D2D36F",
"s. c #EDD06B",
"d. c #F0E770",
"f. c #E0D64E",
"g. c #2724A7",
"h. c #771690",
"j. c #4C3292",
"k. c #713694",
"l. c #6C11B4",
"z. c #5532AB",
"x. c #6A2DAD",
"c. c #2A7396",
"v. c #114EB1",
"b. c #364EB1",
"n. c #2467A4",
"m. c #505289",
"M. c #6F4A88",
"N. c #506C8C",
"B. c #71718F",
"V. c #4E51AD",
"C. c #7253B1",
"Z. c #4E6CB3",
"A. c #6A76A8",
"S. c #6C68A6",
"D. c #3934CB",
"F. c #2726CA",
"G. c #2A08E3",
"H. c #1C15C8",
"J. c #6B2CD6",
"K. c #4D35D4",
"L. c #2F4ECE",
"P. c #3367D1",
"I. c #4A4FD0",
"U. c #7053CD",
"Y. c #5770CF",
"T. c #6B6CD0",
"R. c #5A62EB",
"E. c #8E3691",
"W. c #8615A3",
"Q. c #8D31B4",
"!. c #A429AE",
"~. c #A82092",
"^. c #E527A4",
"/. c #90528E",
"(. c #AD5191",
"). c #976886",
"_. c #8B6D8F",
"`. c #A77A84",
"'. c #A87898",
"]. c #B06E92",
"[. c #8F52AE",
"{. c #AE4FAB",
"}. c #8C70B1",
"|. c #AD74AF",
" X c #D15190",
".X c #D06F8E",
"XX c #D665AF",
"oX c #9031D4",
"OX c #B433CE",
"+X c #A93CF6",
"@X c #D305E5",
"#X c #E61FD6",
"$X c #8B4FC6",
"%X c #A168E0",
"&X c #D169DC",
"*X c #0F9588",
"=X c #308E8A",
"-X c #31B095",
";X c #2CA8AA",
":X c #508993",
">X c #729491",
",X c #52AF8D",
"<X c #6EAD8F",
"1X c #4D88AF",
"2X c #6D8BAD",
"3X c #53B4B4",
"4X c #73AFB1",
"5X c #13CD8F",
"6X c #2ED59B",
"7X c #54C88E",
"8X c #6EC98B",
"9X c #4DE38B",
"0X c #72ED93",
"qX c #72CCA8",
"wX c #50D1B5",
"eX c #1E97DA",
"rX c #5590CB",
"tX c #7092D0",
"yX c #68B2D2",
"uX c #5C99F9",
"iX c #628FED",
"pX c #40BACB",
"aX c #36D8C4",
"sX c #50C1D1",
"dX c #6EC5C6",
"fX c #52E7DB",
"gX c #959898",
"hX c #8B8D8B",
"jX c #AE918E",
"kX c #8BB28D",
"lX c #AAA78F",
"zX c #8C92AD",
"xX c #AC8FAC",
"cX c #8CB2AB",
"vX c #B0AFA7",
"bX c #CC9090",
"nX c #C6B28E",
"mX c #E3B38E",
"MX c #CC8DB2",
"NX c #DFA2B1",
"BX c #8DC492",
"VX c #B5C990",
"CX c #A6E3BA",
"ZX c #D8D592",
"AX c #E1DA91",
"SX c #C7D4AE",
"DX c #8497C4",
"FX c #8F91CA",
"GX c #AD91D0",
"HX c #8EACCB",
"JX c #B2ADCB",
"KX c #DFAFCD",
"LX c #A5D0EB",
"PX c #95DCD1",
"IX c #CECFD3",
"UX c #E1E5DA",
/* pixels */
"                                                                                                                                ",
"                                                                                                                                ",
"                                                        #.AX  .Xw                                                               ",
"                                                      xX9.4 VX    w                                                             ",
"                                                    Z ,.    + )                                                                 ",
"                                                  jXB $.f ..D S S   O                                                           ",
"                                                  N . # B 6 1.o.e.S Q O                                                         ",
"                                                7.9X* $ lXNXC v 0 y.) T                                                         ",
"                                              !.I qX@ _.%.>.IXJXC 7.y...S                     u.)                               ",
"                                              m Y 5 3.bXm.M.&.+.KXC               }.o.bXmXp.( 2 O 2 ` kX                        ",
"                    I I         w.          Z.f.1.2.>./ S.bXM g.%.IX        + / w.JXtX{.XX9 9 9       @XlX;.                    ",
"                    #X        s.w.AX        xXlX3.x.[.gX4X/ 6 mXg.      c X hX6.t.3XgXrXiXiXtXT.2XyX      ;.                    ",
"                  I.dX      wX4X8Xt.t.t.    B bX[.OXE.7 x.[.GX/       0 0 N jX0 ' ' E J VX4X|.$XC.yXuX                          ",
"                  M.=.  t.BXZ ^.^.^.      b b ].FX%XU.U.OXOX      2X7 5 ' :Xg.v.PXI Q P 3.4X XjXI.4XuX                          ",
"                  0   ].`. Xp 6 6         2XM GXUXMX}.HXHX      {.A.>XlXa.HX8.V.P.J O.E G o.MXB R.9 1X_                         ",
"                  +.  2.` J P ! v.G.G.  8 nX}.N B ).(.XX      (.hXkXY.3.6Xw.7.V 1XdXO.Q R VXHX(.R.N.dX:XaX                      ",
"                  ( k ) 4 F.G.J.tX4X    2.` xX^.XX}.  G     W 2.2X3.i.L.2.wXq.  g.v.   .*X( HX X].V.PXrXaXaX                    ",
"                  v k <XZ.tXkX,XP.      2.xXm = ; ; =     9 _.>X2 j.jXi.P.`.              J    X].I.dXuXaX                      ",
"                  p k t.;XP.Y. .R v     /.|.= ; = :     2.[.0 bXNX  < hXi.                            uX                        ",
"                  1.d t.X.I m h OXOX    6 ].0 cX2.      B.)._.7   hX          /.[.,.7.:X0 8.          uX                        ",
"                  + T 2.9 p !.k.tX      >.n ]   ;XeX    7.B.@   B.        v HX5 =X` `.B.,X2.7.1.:X2X                            ",
"                  O T.Z :XOXT.B.y.3X    ZX8 =X  ,     '.].W FXR       k.M >X}.}.gX_ 5 _ ] gX>X4X~ 8 /.zXDX                      ",
"                    = 0 :XcXe.9XzXGX    lX0 % X #     j T &   -       4.7.4.7.1Xn.  E   :X  UX~.<XjX/.[.&X7XrX                  ",
"                    z.b ~ qX3X'.2.      -X` . 4 3XsX    < xX        kX] 3XN     7 $X~ $.:X] CX!.0X} KXC.!.;. .,X                ",
"                    -.E.V.cXxX4X$Xl.    ) N.X &.  [.    _ ).~     kX0   L <.m.      E   :X) vX|.0XX.  NXC._.$.#.` 6             ",
"                      S.Z.4XtXoX[.3 t     cX+ /.  U.    xXe.@.    cX  b.                    UX  8Xp.a.NXT.Q 9 T.zXr b           ",
"                      (.gX>X$XW.3 v BX    xX@ '.<.a.      tX        G             c           & 0XSXa.r.1Xg.B { 6 6 7 q         ",
"                1.      5 xXzX* t vX1X        _.r.  7                     M.B.] Q B.Q.v jX        IXs.<X,Xv.Z B Q 3   _ n.      ",
"            r @.        cXT.4X= kX  lXe.        kXx.  >.                      n.3.} }.M v <._       KXT.HXM c E.V._   &X] 0     ",
"          r u v 7 *.d     P.^ [.1Xm   w.<.        M 4                     VX~.4X    7XzXN ` S.=       -Xg.>.l ].A.' Q.  ).lX    ",
"      h     7.- *.u X.      G >Xv ] r.  V.JX          5                           }   jX{.m 3.).8X        C E.l.<XoXP   e       ",
"    h     9.* @.4 7Xs d.    s x M.2Xa.9     =.                                      A.(.D ^.0 8.8XcX      C ).A.M E.R R   GX    ",
"    Y   1.4.- =.Z  .          6 jXkX6.kX5.K   * zX2XcX                      :X          E.$.h.6.0 |.p   C [.l.] (.< P     q     ",
"      :.  1.*.u 8X+.AXw         N ' N.y.:X#.( > LX                          , 0   )     +.Q.' dXV ).=     l.<XoXh.[     y       ",
"    r h   ..,.s X.' m O *X^.        1X[.) 1X#.) 2 yX~ 0                       ] B.        -X<Xg d.>Xv }.    oXh.R xXU.          ",
"    o +.O.  v ) v d.w O b.D.H.          4X..                          q.    b.  2 tX      dXa d.z b ` |.      7  .U.            ",
"      g d   9 3.#.q.w + !.V.z.y :.                            7       _       % cXyX<Xo     d.m a <.N vXgX    P                 ",
"          0.v.c.7.<.O E ^.0 j : u.V.  :.              Z   {.~.    -X  (.      cXP.yX] 9       b 1.T.B.6.] ]                     ",
"            `.F ` ` <.3 l.F.* j BXN.A.f.;XjX>.E.6 b #.  nXlX      k.  a       ,X  JX) S.      6.2X< h A.>X4                     ",
"              U.W =X-X,.3 H.:   4Xb.  f.  xX  oX  < ) ,X` <.      c x 7.      n :X3X` m.4X      ;Xh jX>XjX~                     ",
"                  ] Q |.4.6 z.p kXZ.  ;.  xXZ T.h.< < 9 0       N w.,.x       1.  O.N <.I.      n xXCX<XT.x =.                  ",
"                      oX_.jXb ; j.b Z.M.6.,X2XbX0.4.jX          vX  # f       4 ~ / B C.D.    jXvX0X9XX.FXW /                   ",
"                          XXgX>X7 C.k.8 N N.k.M {.2Xs j       N   n f N.|.    (.    q.gX'.    CXX.T > @ 6XJ.^                   ",
"                                ; m.3 ,X8 ,.<X9 3 k.        Z.  8X>.n.7.nX  AXa.AXAXZX0 6   9X  1 N.K +.c.: y.                  ",
"                        i                                 6 .   pX% 6 &X      XX  mXzXN.A.      L E.B E.I.J #.                  ",
"                        i AX                        H.8 4.6 r.$ 6 ^ 9 3     FXB   xX4X_.9     m ,.N h.V.D.Y._.                  ",
"                      +Xi AX    c k     F UX    %.XX< W.N.:.# >.8 y.>.      =XW E =XN >X    W.W.% b.L.J.J.T.-.&.                ",
"                    +X+Xa ZXBXB   ^.3X&X     .VXH A XX    8 8 9 = 3       eX2XzXIXFX2.>.    b.b.K.oX[.GXtXT.Z _.                ",
"                      +Xa 6.qXB v K $XJX$ F CX<.7.H     , 2.<.>Xy.        E.)./.  ,.` N.        GXHXyXsXsX  <X                  ",
"                        v 9 yXB e.c ^.8X2.$ N o.  ) %.,.6.kX>X`         f 6 gXJXMX5.jX        fXsXP.5X1XE   9                   ",
"                          i ZX<X,.v l 2XMXu F UX..t.` _.s [.m       H   Y L d f <./ _     [ [ [ ~ 3 F.D.    7                   ",
"                          i 8.BXB <.b l |.(.).'.4.v }._.B.        >.BXlXb v H K ,.zX0   D.D.D.P.pXpX        :                   ",
"                    f.      bXkXv d i f V vX  ) _.^ 2.            ;.e.+.x kXBXb ) e.        5X5X5X        &X                    ",
"                    f.X         3.3.3.u.Z.5 0 n 4X        DX&.  Z LXY.r.*.,.lX7.m 8.          5X        L J                     ",
"                        vXkXo.{ T 9 hX^ 8 c.              q DX&.@.6 '.LXLX9.oX(.G                                               ",
"                                                      T.  @Xq j.gX&.%.V B V.~.(.e                                               ",
"                                                        Z.I.@Xj t A.zXV A.f j n                                                 ",
"                                                        KX5XY.oX@Xq C.S.Z k >X                                                  ",
"                                                          KX  T.}.U.n     j.qX                                                  ",
"                                                                2X    P ;X;                                                     ",
"                                                            ~.    0X8.3XF.                                                      ",
"                                                              j %X  >X5X                                                        ",
"                                                                                                                                ",
"                                                                                                                                "
};
