/* XPM */
static char *_aea6ee1ee4b4b75978df871ccb7c7abVbI1FxjGJSoBYBwC[] = {
/* columns rows colors chars-per-pixel */
"64 64 165 2 ",
"   c None",
".  c #0B362F",
"X  c #0C3730",
"o  c #0D3A33",
"O  c #113C35",
"+  c #103F39",
"@  c #0D4037",
"#  c #0F443B",
"$  c #0F483F",
"%  c #11453D",
"&  c #10483F",
"*  c #0F4B41",
"=  c #114D43",
"-  c #115146",
";  c #12554A",
":  c #135A4E",
">  c #1A584D",
",  c #145E51",
"<  c #1C5D53",
"1  c #146255",
"2  c #1B6256",
"3  c #156658",
"4  c #1B6559",
"5  c #1F695E",
"6  c #206A5F",
"7  c #176E60",
"8  c #196E60",
"9  c #1A7264",
"0  c #366D64",
"q  c #237365",
"w  c #257B6D",
"e  c #367167",
"r  c #367469",
"t  c #2E7F71",
"y  c #41716A",
"u  c #4B7C74",
"i  c #1D8675",
"p  c #1E8877",
"a  c #1F8B79",
"s  c #1F917E",
"d  c #208D7B",
"f  c #20917E",
"g  c #4B8077",
"h  c #4C837A",
"j  c #4E887F",
"k  c #478379",
"l  c #5B847D",
"z  c #1E9380",
"x  c #219582",
"c  c #229A85",
"v  c #239E89",
"b  c #2F9584",
"n  c #24A28D",
"m  c #29A18D",
"M  c #24A690",
"N  c #25AB94",
"B  c #2BAB95",
"V  c #26AF98",
"C  c #27B39B",
"Z  c #28B59D",
"A  c #29B89F",
"S  c #27BAA0",
"D  c #29BCA2",
"F  c #30BAA2",
"G  c #4F8A81",
"H  c #7E9F9A",
"J  c #58B4A4",
"K  c #67BEB0",
"L  c #2AC0A6",
"P  c #2BC5AA",
"I  c #2CC9AE",
"U  c #34C5AB",
"Y  c #35C9AE",
"T  c #2CCDB1",
"R  c #36CCB1",
"E  c #3AD0B5",
"W  c #3AD5BA",
"Q  c #3CD8BD",
"!  c #47CEB7",
"~  c #46D0B8",
"^  c #48D2BA",
"/  c #51D4BD",
"(  c #3CDDC1",
")  c #3EE3C7",
"_  c #3FE5C8",
"`  c #6BD3C1",
"'  c #41E6C9",
"]  c #48E7CC",
"[  c #47EACE",
"{  c #48EBCF",
"}  c #55E8CE",
"|  c #49ECD0",
" . c #53EDD3",
".. c #5AEED4",
"X. c #6DE1CD",
"o. c #64EED7",
"O. c #7DE9D6",
"+. c #6FF1DA",
"@. c #74F1DC",
"#. c #7DF1DE",
"$. c #82A49F",
"%. c #8EDACD",
"&. c #99DBCF",
"*. c #98DBD0",
"=. c #85E2D2",
"-. c #8BE3D4",
";. c #81EAD7",
":. c #8EECDC",
">. c #87EADA",
",. c #94ECDD",
"<. c #A2E5D8",
"1. c #86F2E0",
"2. c #8FF4E3",
"3. c #93F5E4",
"4. c #9BF5E6",
"5. c #9EF7E8",
"6. c #A8EEE2",
"7. c #A4F5E7",
"8. c #A5F6E8",
"9. c #ABF7EA",
"0. c #A7F8EA",
"q. c #ACF8EB",
"w. c #B4F7EC",
"e. c #BCF7ED",
"r. c #B5F8EC",
"t. c #BBF9ED",
"y. c #C2F9EF",
"u. c #C5F9F0",
"i. c #C4F9F0",
"p. c #CBFAF2",
"a. c #CFFAF3",
"s. c #CBF9F1",
"d. c #D6FBF5",
"f. c #D3FAF4",
"g. c #DAFBF6",
"h. c #DEFBF7",
"j. c #DEFCF7",
"k. c #DCFCF6",
"l. c #E0FBF7",
"z. c #E1FCF7",
"x. c #E5FBF9",
"c. c #E5FCF9",
"v. c #E4FCF8",
"b. c #EAFCFA",
"n. c #EFFCFB",
"m. c #EEFCFB",
"M. c #ECFDFB",
"N. c #EDFCFB",
"B. c #F0FDFB",
"V. c #F3FCFB",
"C. c #F0FDFC",
"Z. c #F1FDFC",
"A. c #F3FDFC",
"S. c #F1FEFC",
"D. c #F5FDFC",
"F. c #F7FDFC",
"G. c #F4FDFC",
"H. c #F8FDFD",
"J. c #F9FDFD",
"K. c #F8FDFC",
"L. c #FAFDFD",
"P. c #FBFDFD",
"I. c #FBFEFE",
"U. c #FAFEFE",
"Y. c #FAFEFE",
/* pixels */
"                                                                                                                                ",
"                                                                                                                                ",
"                                                                                                                                ",
"                                                                                                                                ",
"                                                                                                                                ",
"                                                                                                                                ",
"                                                                                                                                ",
"                                                                                                                                ",
"                                              : : : : : ; ; ; ; - = = = = = = % *                                               ",
"                                            , , : : ; ; ; ; ; - ; ; - - = = * = $ %                                             ",
"                                          , , , , : : : ; : ; ; ; ; - - = * * * $ $ $                                           ",
"                                        , , , , , r h g k k g u u u u u u u y * & $ $ %                                         ",
"                                      , 1 , , : h I.I.I.I.I.I.I.I.I.I.P.P.K.n.$.= % $ $ $                                       ",
"                                    1 1 1 1 1 j F.I.I.K.F.F.F.K.K.K.K.K.K.I.n.n.$.$ % $ % @                                     ",
"                                  1 1 1 1 , h I.I.I.V.K.A.A.A.V.I.K.K.I.P.D.A.A.n.H $ # $ @ %                                   ",
"                                1 3 3 1 1 j I.I.F.F.M.b.x.h.h.b.b.D.K.K.K.A.n.n.A.M.l $ @ $ @ %                                 ",
"                              3 1 3 3 3 j K.I.F.K.M.c.d.s.i.p.s.j.b.F.K.I.A.V.b.b.b.h.h # # # # @                               ",
"                            1 3 3 3 3 j K.I.I.V.M.z.f.i.r.q.q.t.p.z.n.K.F.M.A.F.A.x.e.1.t # # # @ %                             ",
"                          1 3 3 3 3 G I.I.F.A.b.h.s.t.w.q.8.9.q.i.f.b.D.b.B.B.b.x.u.3.o.| 4 # # @ @ %                           ",
"                        4 1 1 3 3 G I.I.F.F.c.d.y.w.9.9.9.8.9.9.t.p.x.D.B.B.B.x.s.4.+. .| | 4 # % o +                           ",
"                        1 1 1 1 G K.I.V.A.b.d.i.w.9.8.8.9.8.8.9.w.i.j.A.A.b.b.d.7.@...{ | [ | 4 @ o o o                         ",
"                      1 1 1 3 q K.I.I.F.n.j.p.r.9.q.8.8.8.8.9.9.q.e.k.A.M.M.h.q.#... .{ | [ [ | @ @ % @                         ",
"                      , 1 1 1 <.t.I.I.K.M.d.i.q.8.8.8.9.8.9.8.9.w.u.z.n.M.v.t.1.o. .[ [ | [ [ | w % o o %                       ",
"                    1 1 1 1 q w.w.y.I.K.b.g.t.q.8.8.8.8.8.8.8.q.i.d.b.n.x.i.2.o. .[ | | | [ | [ | @ o @ o                       ",
"                    , 1 1 1 <.r.r.r.p.I.m.k.y.w.7.7.7.7.9.9.w.i.f.i.w.w.a.4.+. .| { { | | { [ | | 6 @ o o o                     ",
"                  , , 1 1 4 w.w.w.r.r.g.G.c.s.r.9.9.q.9.q.e.i.i.r.w.q.9.8.1...| [ | [ | | [ | | | | @ o @ o                     ",
"                  : : , 1 &.r.r.r.r.r.r.z.m.h.s.t.r.r.t.u.s.r.w.q.q.9.8.4.3...| | | [ [ | | [ | { { 6 o o o o                   ",
"                , , , , 4 r.r.r.r.r.r.r.r.m.b.h.a.a.a.d.e.w.w.w.q.9.7.4.4.3.3.| | [ | | | | [ [ { | [ o + o o                   ",
"                : : : : *.r.r.r.w.r.r.r.r.r.V.m.b.z.y.e.r.r.w.9.8.8.4.3.3.2.3.@.{ | { { { | | { | | | 5 o o o o                 ",
"                : : : 2 r.r.r.r.r.r.r.r.r.q.r.K.m.t.w.w.w.w.q.9.8.4.3.3.2.3.3.4.{ { | | { { | { [ { | [ o o o o                 ",
"                : : : r t.t.r.r.w.r.r.r.r.r.r.r.r.r.t.w.w.q.8.4.4.3.3.2.3.3.4.7. .{ | [ | [ { | | [ | [ < o o o                 ",
"                ; : : r t.t.r.r.w.w.w.r.r.r.r.r.r.r.r.q.8.8.5.4.3.3.2.3.4.5.8.8.#.| { | [ { { | { | { | ! o X o                 ",
"                : - : r y.r.e.w.r.r.r.r.r.r.r.r.w.w.q.9.8.5.4.3.3.2.3.4.5.7.9.9.3.| [ | | | | | { | | | ^ o o .                 ",
"                - : ; e y.y.e.w.r.r.w.r.r.r.r.r.w.q.9.7.5.4.3.2.3.3.4.4.8.9.9.w.9.| | | | | { { { | | { ^ o o .                 ",
"                : - - e s.y.y.e.t.w.r.r.r.r.r.r.q.9.7.5.3.3.3.2.3.4.5.8.9.9.w.w.J b ] [ | | | | | | { | ^ o O .                 ",
"                - - - 0 s.u.y.e.t.r.r.r.r.r.r.q.8.8.5.4.3.3.3.3.4.5.8.9.9.w.e.6.d d d v [ [ [ { [ | [ | ^ o . .                 ",
"                - - ; e s.s.y.y.t.e.r.r.w.r.r.q.8.5.3.3.2.3.3.4.7.7.9.w.e.w.w.b d d i d a B ] | | | | | ^ o X o                 ",
"                - & & e f.s.s.y.t.t.r.t.r.O.E / 4.3.3.3.3.3.5.8.8.9.w.w.e.w.K z d d d d x z c B [ | { | ^ X . O                 ",
"                - & - e s.s.s.y.y.t.8.} ( Q E Y X.2.2.3.3.5.7.9.9.w.w.w.w.%.p p d d d x c v M v z V [ { ^ o . .                 ",
"                & - & 0 f.f.f.s.3.' ) ) ( ( E Y U O.>.:.:.,.=.=.-.-.` ` ` d i z a d c v M B B V C n c B ! . X o                 ",
"                = * = 0 f.e.} ' ' ' _ ) ) Q W R U z v v M M V V C Z Z Z Z n z z z z b n B S S F C N n c 9 X X .                 ",
"                $ = = < ) ' ) ) ) ) ) ' ' Q W R m c v v M V V C S S D D D D z w z z v M S D D D D C N v + X X .                 ",
"                & = $ * W ) ) ) ) ) ) ) _ Q W U z v v M V V C D D D D D D D Z z z c n N S D I I L Z N v . X X O                 ",
"                & $ $ $ > ' ) ' ) ' ) ) _ ) W s z z M M N C S D I D I I D D D N z c m V D D P I L Z N q O X X O                 ",
"                  $ $ % * ^ _ ' ) _ _ ) ) ) n s c v v M V C D D I I I I I D D Z x x m N S S D D A V M # X X X                   ",
"                  $ # $ $ : ) ) ) ) ) ) ) Y a s x c v N N S D P I I T I T D D D B z c n B C S S Z N m X o X .                   ",
"                    # # # $ ( ' _ _ _ _ ) p p s x v M M V C S D D T T T I I D Z V M x m M B M N N m w X X X X                   ",
"                    # # # # 1 _ ) _ ) ) a p a s x v v M V V S D D T D I D D D S N M c x c v v m n c % X o X                     ",
"                      & # % @ Q _ _ _ D d d a d x c v n N V C S D P P D D D Z C N N n d f x x x f 9 X X o .                     ",
"                      & # # % : ) _ ( p i i i i x x v n M V C S S D D D D Z C N N n v c d d f d 8 X X X X O                     ",
"                        # @ @ # 2 _ i i i i d d z x z n M M V V S C S C C Z V N n n c x d d d 8 o o X X O                       ",
"                        % o # o + ; i i i i i i a x x v v M M N V V V C V N N M n v c f d d 8 . o o X o                         ",
"                          + + o @ @ ; i i i i p a d z x c v M M M M N N M M M v v c x f d 8 o . . . O                           ",
"                            # o o @ o ; i i i i a a z x x v v v v M n M n n v v z x x a 8 X X O X o                             ",
"                              + o o o o = p i i p a a z x x c c v v v v v c c c x z a 7 X X X o X                               ",
"                                o + o o o - i i p p p a a z a x c z c z x x f z a a 8 o . . O .                                 ",
"                                  O O o o o % = = = = = - = - = * = = - = - = = = = . . . . O                                   ",
"                                    o X X X o o X o o o X X X o X X o X X X X X . . X O o .                                     ",
"                                      O o o o X O X o X X o X X X X X X X X o X X O X . X                                       ",
"                                          o X X X X X o X X X O X X X X X X X o . . O O                                         ",
"                                                                                                                                ",
"                                                                                                                                ",
"                                                                                                                                ",
"                                                                                                                                "
};
